<?xml version="1.0" encoding="UTF-8" standalone="no"?>
<!-- Created with Inkscape (http://www.inkscape.org/) -->

<svg
   xmlns:dc="http://purl.org/dc/elements/1.1/"
   xmlns:cc="http://creativecommons.org/ns#"
   xmlns:rdf="http://www.w3.org/1999/02/22-rdf-syntax-ns#"
   xmlns:svg="http://www.w3.org/2000/svg"
   xmlns="http://www.w3.org/2000/svg"
   xmlns:sodipodi="http://sodipodi.sourceforge.net/DTD/sodipodi-0.dtd"
   xmlns:inkscape="http://www.inkscape.org/namespaces/inkscape"
   version="1.1"
   id="svg10"
   xml:space="preserve"
   width="867.92285"
   height="564.32452"
   viewBox="0 0 867.92285 564.32452"
   sodipodi:docname="fluorescence.svg"
   inkscape:version="0.92.2 (5c3e80d, 2017-08-06)"><metadata
     id="metadata16"><rdf:RDF><cc:Work
         rdf:about=""><dc:format>image/svg+xml</dc:format><dc:type
           rdf:resource="http://purl.org/dc/dcmitype/StillImage" /><dc:title /></cc:Work></rdf:RDF></metadata><defs
     id="defs14" /><sodipodi:namedview
     pagecolor="#ffffff"
     bordercolor="#666666"
     borderopacity="1"
     objecttolerance="10"
     gridtolerance="10"
     guidetolerance="10"
     inkscape:pageopacity="0"
     inkscape:pageshadow="2"
     inkscape:window-width="1920"
     inkscape:window-height="1017"
     id="namedview12"
     showgrid="false"
     inkscape:zoom="1.0625563"
     inkscape:cx="246.0514"
     inkscape:cy="316.99831"
     inkscape:window-x="-8"
     inkscape:window-y="-8"
     inkscape:window-maximized="1"
     inkscape:current-layer="g18" /><g
     id="g18"
     inkscape:groupmode="layer"
     inkscape:label="fluorescence-grafik"
     transform="matrix(1.3333333,0,0,-1.3333333,0,564.32454)"><g
       id="g20"
       inkscape:export-filename="C:\Users\Conrad\QUADaps\Bachelorarbeit\illustrations\fluorescence.png"
       inkscape:export-xdpi="90"
       inkscape:export-ydpi="90"><g
         id="g22"
         transform="matrix(1,0,0,-1,0,423.24341)"><path
           d="m 500.285,233.934 c 0,103.57 -83.961,187.531 -187.531,187.531 -103.57,0 -187.531,-83.961 -187.531,-187.531 0,-103.571 83.961,-187.532 187.531,-187.532 103.57,0 187.531,83.961 187.531,187.532 z"
           style="fill:none;stroke:#000000;stroke-width:0.72199798;stroke-linecap:butt;stroke-linejoin:miter;stroke-miterlimit:4;stroke-dasharray:none;stroke-opacity:1"
           id="path24"
           inkscape:connector-curvature="0" /></g><g
         id="g26"
         transform="matrix(1,0,0,-1,0,423.24341)"><path
           d="m 423.625,233.934 c 0,61.23 -49.641,110.867 -110.871,110.867 -61.231,0 -110.867,-49.637 -110.867,-110.867 0,-61.231 49.636,-110.868 110.867,-110.868 61.23,0 110.871,49.637 110.871,110.868 z"
           style="fill:none;stroke:#000000;stroke-width:0.80923498;stroke-linecap:butt;stroke-linejoin:miter;stroke-miterlimit:4;stroke-dasharray:none;stroke-opacity:1"
           id="path28"
           inkscape:connector-curvature="0" /></g><g
         id="g30"
         transform="matrix(1,0,0,-1,0,423.24341)"><path
           d="m 469.391,233.934 c 0,86.507 -70.129,156.636 -156.637,156.636 -86.508,0 -156.633,-70.129 -156.633,-156.636 0,-86.508 70.125,-156.637 156.633,-156.637 86.508,0 156.637,70.129 156.637,156.637 z"
           style="fill:none;stroke:#000000;stroke-width:0.75;stroke-linecap:butt;stroke-linejoin:miter;stroke-miterlimit:4;stroke-dasharray:none;stroke-opacity:1"
           id="path32"
           inkscape:connector-curvature="0" /></g><path
         d="m 343.77,189.31 c 0,-17.129 -13.887,-31.012 -31.016,-31.012 -17.129,0 -31.012,13.883 -31.012,31.012 0,17.129 13.883,31.015 31.012,31.015 17.129,0 31.016,-13.886 31.016,-31.015 z"
         style="fill:#9d0000;fill-opacity:1;fill-rule:nonzero;stroke:none"
         id="path34"
         inkscape:connector-curvature="0" /><path
         d="m 206.633,297.896 c 0,-3.914 -3.172,-7.086 -7.086,-7.086 -3.914,0 -7.086,3.172 -7.086,7.086 0,3.914 3.172,7.086 7.086,7.086 3.914,0 7.086,-3.172 7.086,-7.086 z"
         style="fill:#007c00;fill-opacity:1;fill-rule:nonzero;stroke:none"
         id="path36"
         inkscape:connector-curvature="0" /><path
         d="m 319.84,33.314 c 0,-3.914 -3.172,-7.09 -7.086,-7.09 -3.914,0 -7.086,3.176 -7.086,7.09 0,3.914 3.172,7.086 7.086,7.086 3.914,0 7.086,-3.172 7.086,-7.086 z"
         style="fill:#007c00;fill-opacity:1;fill-rule:nonzero;stroke:none"
         id="path38"
         inkscape:connector-curvature="0" /><path
         d="m 204.559,84.052 c 0,-3.914 -3.172,-7.086 -7.086,-7.086 -3.914,0 -7.086,3.172 -7.086,7.086 0,3.914 3.172,7.086 7.086,7.086 3.914,0 7.086,-3.172 7.086,-7.086 z"
         style="fill:#007c00;fill-opacity:1;fill-rule:nonzero;stroke:none"
         id="path40"
         inkscape:connector-curvature="0" /><path
         d="m 163.84,189.31 c 0,-3.914 -3.172,-7.086 -7.086,-7.086 -3.914,0 -7.086,3.172 -7.086,7.086 0,3.914 3.172,7.086 7.086,7.086 3.914,0 7.086,-3.172 7.086,-7.086 z"
         style="fill:#007c00;fill-opacity:1;fill-rule:nonzero;stroke:none"
         id="path42"
         inkscape:connector-curvature="0" /><path
         d="m 224.609,133.548 c 0,-3.914 -3.175,-7.086 -7.089,-7.086 -3.915,0 -7.086,3.172 -7.086,7.086 0,3.914 3.171,7.086 7.086,7.086 3.914,0 7.089,-3.172 7.089,-7.086 z"
         style="fill:#007c00;fill-opacity:1;fill-rule:nonzero;stroke:none"
         id="path44"
         inkscape:connector-curvature="0" /><path
         d="m 319.84,345.31 c 0,-3.914 -3.172,-7.086 -7.086,-7.086 -3.914,0 -7.086,3.172 -7.086,7.086 0,3.914 3.172,7.086 7.086,7.086 3.914,0 7.086,-3.172 7.086,-7.086 z"
         style="fill:#007c00;fill-opacity:1;fill-rule:nonzero;stroke:none"
         id="path46"
         inkscape:connector-curvature="0" /><path
         d="m 475.84,189.31 c 0,-3.914 -3.172,-7.086 -7.086,-7.086 -3.914,0 -7.086,3.172 -7.086,7.086 0,3.914 3.172,7.086 7.086,7.086 3.914,0 7.086,-3.172 7.086,-7.086 z"
         style="fill:#007c00;fill-opacity:1;fill-rule:nonzero;stroke:none"
         id="path48"
         inkscape:connector-curvature="0" /><path
         d="m 148.797,267.001 c 0,-3.914 -3.172,-7.086 -7.086,-7.086 -3.914,0 -7.09,3.172 -7.09,7.086 0,3.914 3.176,7.086 7.09,7.086 3.914,0 7.086,-3.172 7.086,-7.086 z"
         style="fill:#007c00;fill-opacity:1;fill-rule:nonzero;stroke:none"
         id="path50"
         inkscape:connector-curvature="0" /><path
         d="m 147.543,114.751 c 0,-3.914 -3.172,-7.086 -7.086,-7.086 -3.914,0 -7.086,3.172 -7.086,7.086 0,3.914 3.172,7.086 7.086,7.086 3.914,0 7.086,-3.172 7.086,-7.086 z"
         style="fill:#007c00;fill-opacity:1;fill-rule:nonzero;stroke:none"
         id="path52"
         inkscape:connector-curvature="0" /><path
         d="m 389.387,15.13 c 0,-3.914 -3.172,-7.086 -7.086,-7.086 -3.914,0 -7.086,3.172 -7.086,7.086 0,3.914 3.172,7.09 7.086,7.09 3.914,0 7.086,-3.176 7.086,-7.09 z"
         style="fill:#007c00;fill-opacity:1;fill-rule:nonzero;stroke:none"
         id="path54"
         inkscape:connector-curvature="0" /><path
         d="m 492.141,121.017 c 0,-3.914 -3.172,-7.086 -7.086,-7.086 -3.914,0 -7.086,3.172 -7.086,7.086 0,3.914 3.172,7.086 7.086,7.086 3.914,0 7.086,-3.172 7.086,-7.086 z"
         style="fill:#007c00;fill-opacity:1;fill-rule:nonzero;stroke:none"
         id="path56"
         inkscape:connector-curvature="0" /><path
         d="m 489.008,273.892 c 0,-3.914 -3.172,-7.086 -7.086,-7.086 -3.914,0 -7.086,3.172 -7.086,7.086 0,3.914 3.172,7.086 7.086,7.086 3.914,0 7.086,-3.172 7.086,-7.086 z"
         style="fill:#007c00;fill-opacity:1;fill-rule:nonzero;stroke:none"
         id="path58"
         inkscape:connector-curvature="0" /><path
         d="m 430.738,79.665 c 0,-3.914 -3.172,-7.086 -7.086,-7.086 -3.914,0 -7.086,3.172 -7.086,7.086 0,3.914 3.172,7.086 7.086,7.086 3.914,0 7.086,-3.172 7.086,-7.086 z"
         style="fill:#007c00;fill-opacity:1;fill-rule:nonzero;stroke:none"
         id="path60"
         inkscape:connector-curvature="0" /><path
         d="m 245.285,360.357 c 0,-3.914 -3.176,-7.086 -7.09,-7.086 -3.914,0 -7.086,3.172 -7.086,7.086 0,3.914 3.172,7.086 7.086,7.086 3.914,0 7.09,-3.172 7.09,-7.086 z"
         style="fill:#007c00;fill-opacity:1;fill-rule:nonzero;stroke:none"
         id="path62"
         inkscape:connector-curvature="0" /><path
         d="m 240.27,19.517 c 0,-3.914 -3.172,-7.086 -7.086,-7.086 -3.914,0 -7.086,3.172 -7.086,7.086 0,3.914 3.172,7.086 7.086,7.086 3.914,0 7.086,-3.172 7.086,-7.086 z"
         style="fill:#007c00;fill-opacity:1;fill-rule:nonzero;stroke:none"
         id="path64"
         inkscape:connector-curvature="0" /><path
         d="m 588.629,247.579 c 0,-3.914 -3.176,-7.086 -7.086,-7.086 -3.914,0 -7.09,3.172 -7.09,7.086 0,3.914 3.176,7.086 7.09,7.086 3.91,0 7.086,-3.172 7.086,-7.086 z"
         style="fill:#007c00;fill-opacity:1;fill-rule:nonzero;stroke:none"
         id="path66"
         inkscape:connector-curvature="0" /><g
         id="g68"
         transform="matrix(1,0,0,-1,0,423.24341)"><path
           d="m 394.207,64.766 18.484,113.777"
           style="fill:#000000;fill-opacity:1;fill-rule:nonzero;stroke:#000000;stroke-width:0.75118101;stroke-linecap:butt;stroke-linejoin:miter;stroke-miterlimit:4;stroke-dasharray:4.507086, 4.507086;stroke-dashoffset:0;stroke-opacity:1"
           id="path70"
           inkscape:connector-curvature="0" /></g><g
         id="g72"
         transform="matrix(-0.162472,1,1,0.162472,0,423.24341)"><path
           d="m -231.859,373.814 2.962,-2.964 -10.381,2.965 10.382,2.965 z"
           style="fill:#000000;fill-opacity:1;fill-rule:evenodd;stroke:#000000;stroke-width:0.79088902;stroke-linecap:butt;stroke-linejoin:miter;stroke-miterlimit:4;stroke-dasharray:none;stroke-opacity:1"
           id="path74"
           inkscape:connector-curvature="0" /></g><path
         d="m 401.293,358.478 c 0,-3.914 -3.172,-7.09 -7.086,-7.09 -3.914,0 -7.09,3.176 -7.09,7.09 0,3.91 3.176,7.086 7.09,7.086 3.914,0 7.086,-3.176 7.086,-7.086 z"
         style="fill:#007c00;fill-opacity:1;fill-rule:nonzero;stroke:none"
         id="path76"
         inkscape:connector-curvature="0" /><g
         id="g78"
         transform="matrix(1,0,0,-1,0,423.24341)"><path
           d="M 413.629,186.941 572.145,176.918"
           style="fill:none;stroke:#000000;stroke-width:0.75;stroke-linecap:butt;stroke-linejoin:miter;stroke-miterlimit:4;stroke-dasharray:none;stroke-opacity:1"
           id="path80"
           inkscape:connector-curvature="0" /></g><g
         id="g82"
         transform="matrix(-1,-0.0632412,-0.0632412,1,0,423.24341)"><path
           d="m -551.233,-212.251 2.994,-2.995 -10.482,2.994 10.482,2.995 z"
           style="fill:#000000;fill-opacity:1;fill-rule:evenodd;stroke:#000000;stroke-width:0.79840499;stroke-linecap:butt;stroke-linejoin:miter;stroke-miterlimit:4;stroke-dasharray:none;stroke-opacity:1"
           id="path84"
           inkscape:connector-curvature="0" /></g><g
         id="g86"
         transform="matrix(1,0,0,-1,0,423.24341)"><path
           d="m 429.637,130.664 -12.114,48.07"
           style="fill:none;stroke:#000000;stroke-width:0.83701599;stroke-linecap:butt;stroke-linejoin:miter;stroke-miterlimit:4;stroke-dasharray:5.022096, 5.022096;stroke-dashoffset:0;stroke-opacity:1"
           id="path88"
           inkscape:connector-curvature="0" /></g><g
         id="g90"
         transform="matrix(0.251958,1,1,-0.251958,0,423.24341)"><path
           d="m -61.029,434.947 3.245,-3.247 -11.362,3.245 11.361,3.247 z"
           style="fill:#000000;fill-opacity:1;fill-rule:evenodd;stroke:#000000;stroke-width:0.86575902;stroke-linecap:butt;stroke-linejoin:miter;stroke-miterlimit:4;stroke-dasharray:none;stroke-opacity:1"
           id="path92"
           inkscape:connector-curvature="0" /></g><path
         d="m 437.004,292.689 c 0,-3.914 -3.172,-7.086 -7.086,-7.086 -3.914,0 -7.086,3.172 -7.086,7.086 0,3.914 3.172,7.086 7.086,7.086 3.914,0 7.086,-3.172 7.086,-7.086 z"
         style="fill:#007c00;fill-opacity:1;fill-rule:nonzero;stroke:none"
         id="path94"
         inkscape:connector-curvature="0" /><g
         id="g96"
         transform="matrix(1,0,0,-1,0,423.24341)"><path
           d="m 420.715,186.941 c 0,3.914 -3.172,7.09 -7.086,7.09 -3.914,0 -7.086,-3.176 -7.086,-7.09 0,-3.914 3.172,-7.086 7.086,-7.086 3.914,0 7.086,3.172 7.086,7.086 z"
           style="fill:#ffffff;fill-opacity:1;fill-rule:nonzero;stroke:#000000;stroke-width:0.77118403;stroke-linecap:butt;stroke-linejoin:miter;stroke-miterlimit:4;stroke-dasharray:none;stroke-opacity:1"
           id="path98"
           inkscape:connector-curvature="0" /></g><g
         id="g100"
         transform="matrix(1,0,0,-1,0,423.24341)"><path
           d="m 124.316,34.328 c -2.574,2.254 7.59,16.512 17.297,9.262 9.703,-7.25 16.875,-5.93 17.297,9.265 0.418,15.196 7.422,17.938 17.297,9.262 9.871,-8.672 19.871,-0.91 17.297,9.266 -2.578,10.176 7.473,19.613 17.297,9.262 9.82,-10.348 19.586,-3.524 17.297,9.265 -2.293,12.785 7.246,18.008 17.297,9.262 10.05,-8.746 19.281,-4.11 17.293,9.266 -1.985,13.374 5.539,17.812 17.296,9.261 11.762,-8.551 19.852,-4.918 17.297,9.266 -2.554,14.183 8.867,17.043 17.297,9.262 8.43,-7.782 17.598,-2.77 17.297,9.265 -0.297,12.035 9.363,18.488 17.297,9.262 7.937,-9.223 20.949,-3.703 17.297,9.266 -3.653,12.968 14.676,16.984 17.297,9.261 2.621,-7.722 15.3,7.766 17.296,9.266"
           style="fill:none;stroke:#000000;stroke-width:0.75;stroke-linecap:butt;stroke-linejoin:miter;stroke-miterlimit:4;stroke-dasharray:none;stroke-opacity:1"
           id="path102"
           inkscape:connector-curvature="0" /></g><g
         id="g104"
         transform="matrix(-1,0.750004,0.750004,1,0,423.24341)"><path
           d="m -338.302,75.681 2.401,-2.398 -8.401,2.398 8.403,2.401 z"
           style="fill:#000000;fill-opacity:1;fill-rule:evenodd;stroke:#000000;stroke-width:0.63999897;stroke-linecap:butt;stroke-linejoin:miter;stroke-miterlimit:4;stroke-dasharray:none;stroke-opacity:1"
           id="path106"
           inkscape:connector-curvature="0" /></g></g><g
       transform="translate(0.73175158,0.85624715)"
       id="g118"
       inkscape:export-filename="C:\Users\Conrad\QUADaps\Bachelorarbeit\illustrations\fluorescence.png"
       inkscape:export-xdpi="90"
       inkscape:export-ydpi="90"><g
         id="g120"
         transform="matrix(1,0,0,-1,0,423.24341)"><path
           d="m 422.676,156.797 c 0.59,3.578 20.277,-4.93 19.41,-14.453 -0.863,-9.524 11.816,-19.477 19.414,-14.453 7.602,5.019 20.207,-7.539 19.414,-14.457 -0.793,-6.914 11.215,-19.946 19.414,-14.454 8.199,5.493 22.133,-7.535 19.414,-14.453 -2.719,-6.918 6.699,-18.726 19.414,-14.453 9.004,3.024 22.481,-17.523 22.481,-17.523"
           style="fill:none;stroke:#000000;stroke-width:0.75;stroke-linecap:butt;stroke-linejoin:miter;stroke-miterlimit:4;stroke-dasharray:none;stroke-opacity:1"
           id="path122"
           inkscape:connector-curvature="0" /></g><g
         id="g124"
         transform="matrix(-0.655795,-1,-1,0.655795,0,423.24341)"><path
           d="m -214.533,-416.833 2.507,-2.508 -8.78,2.508 8.782,2.51 z"
           style="fill:#000000;fill-opacity:1;fill-rule:evenodd;stroke:#000000;stroke-width:0.66897798;stroke-linecap:butt;stroke-linejoin:miter;stroke-miterlimit:4;stroke-dasharray:none;stroke-opacity:1"
           id="path126"
           inkscape:connector-curvature="0" /></g><g
         id="g128"
         transform="matrix(1,0,0,-1,0,423.24341)"><path
           d="m 402.742,120.051 c 0.453,2.281 15.5,-3.141 14.84,-9.207 -0.664,-6.063 9.027,-12.403 14.836,-9.203 5.809,3.195 15.441,-4.805 14.836,-9.207 -0.606,-4.407 8.57,-12.707 14.84,-9.207 6.265,3.496 16.914,-4.801 14.836,-9.207 -2.078,-4.407 5.121,-11.93 14.836,-9.208 6.882,1.926 17.183,-11.16 17.183,-11.16"
           style="fill:none;stroke:#000000;stroke-width:0.75;stroke-linecap:butt;stroke-linejoin:miter;stroke-miterlimit:4;stroke-dasharray:none;stroke-opacity:1"
           id="path130"
           inkscape:connector-curvature="0" /></g><g
         id="g132"
         transform="matrix(-0.786873,-1,-1,0.786873,0,423.24341)"><path
           d="m -208.304,-340.399 2.355,-2.358 -8.251,2.356 8.251,2.359 z"
           style="fill:#000000;fill-opacity:1;fill-rule:evenodd;stroke:#000000;stroke-width:0.62870097;stroke-linecap:butt;stroke-linejoin:miter;stroke-miterlimit:4;stroke-dasharray:none;stroke-opacity:1"
           id="path134"
           inkscape:connector-curvature="0" /></g></g><text
       xml:space="preserve"
       style="font-style:normal;font-variant:normal;font-weight:normal;font-stretch:normal;font-size:30px;line-height:1.25;font-family:'Palatino Linotype';-inkscape-font-specification:'Palatino Linotype';letter-spacing:0px;word-spacing:0px;fill:#000000;fill-opacity:1;stroke:none;stroke-width:0.75;"
       x="393.29694"
       y="-146.7377"
       id="text211"
       transform="scale(1,-1)"
       inkscape:export-filename="C:\Users\Conrad\QUADaps\Bachelorarbeit\illustrations\fluorescence.png"
       inkscape:export-xdpi="90"
       inkscape:export-ydpi="90"><tspan
         sodipodi:role="line"
         id="tspan209"
         x="393.29694"
         y="-146.7377"
         style="font-style:normal;font-variant:normal;font-weight:normal;font-stretch:normal;font-family:'Palatino Linotype';-inkscape-font-specification:'Palatino Linotype';stroke-width:0.75;font-size:22.00000055px;">K</tspan></text>
<text
       xml:space="preserve"
       style="font-style:normal;font-variant:normal;font-weight:normal;font-stretch:normal;font-size:24.0000006px;line-height:1.25;font-family:'Palatino Linotype';-inkscape-font-specification:'Palatino Linotype';letter-spacing:0px;word-spacing:0px;fill:#000000;fill-opacity:1;stroke:none;stroke-width:0.75;"
       x="428.2345"
       y="-109.30461"
       id="text215"
       transform="scale(1,-1)"
       inkscape:export-filename="C:\Users\Conrad\QUADaps\Bachelorarbeit\illustrations\fluorescence.png"
       inkscape:export-xdpi="90"
       inkscape:export-ydpi="90"><tspan
         sodipodi:role="line"
         id="tspan213"
         x="428.2345"
         y="-109.30461"
         style="font-style:normal;font-variant:normal;font-weight:normal;font-stretch:normal;font-family:'Palatino Linotype';-inkscape-font-specification:'Palatino Linotype';stroke-width:0.75;font-size:24.0000006px;">L</tspan></text>
<text
       xml:space="preserve"
       style="font-style:normal;font-variant:normal;font-weight:normal;font-stretch:normal;font-size:30px;line-height:1.25;font-family:'Cambria Math';-inkscape-font-specification:'Cambria Math';letter-spacing:0px;word-spacing:0px;fill:#000000;fill-opacity:1;stroke:none;stroke-width:0.75"
       x="463.17203"
       y="-55.900082"
       id="text219"
       transform="scale(1,-1)"
       inkscape:export-filename="C:\Users\Conrad\QUADaps\Bachelorarbeit\illustrations\fluorescence.png"
       inkscape:export-xdpi="90"
       inkscape:export-ydpi="90"><tspan
         sodipodi:role="line"
         id="tspan217"
         x="463.17203"
         y="-55.900082"
         style="font-style:normal;font-variant:normal;font-weight:normal;font-stretch:normal;font-family:'Palatino Linotype';-inkscape-font-specification:'Palatino Linotype';stroke-width:0.75;font-size:24.0000006px">M</tspan></text>
<text
       xml:space="preserve"
       style="font-style:normal;font-variant:normal;font-weight:normal;font-stretch:normal;font-size:30px;line-height:1.25;font-family:'Palatino Linotype';-inkscape-font-specification:'Palatino Linotype';letter-spacing:0px;word-spacing:0px;fill:#000000;fill-opacity:1;stroke:none;stroke-width:0.75"
       x="79.358147"
       y="-392.79785"
       id="text223"
       transform="scale(1,-1)"
       inkscape:export-filename="C:\Users\Conrad\QUADaps\Bachelorarbeit\illustrations\fluorescence.png"
       inkscape:export-xdpi="90"
       inkscape:export-ydpi="90"><tspan
         sodipodi:role="line"
         id="tspan221"
         x="79.358147"
         y="-392.79785"
         style="font-style:normal;font-variant:normal;font-weight:normal;font-stretch:normal;font-size:14px;font-family:'Palatino Linotype';-inkscape-font-specification:'Palatino Linotype';stroke-width:0.75">einfallendes Röntgenphoton</tspan></text>
<text
       xml:space="preserve"
       style="font-style:normal;font-weight:normal;line-height:1.25;font-family:sans-serif;letter-spacing:0px;word-spacing:0px;baseline-shift:baseline;fill:#000000;fill-opacity:1;stroke:none;stroke-width:0.75"
       x="588.94714"
       y="-230.58781"
       id="text227"
       transform="scale(1,-1)"
       inkscape:export-filename="C:\Users\Conrad\QUADaps\Bachelorarbeit\illustrations\fluorescence.png"
       inkscape:export-xdpi="90"
       inkscape:export-ydpi="90"><tspan
         sodipodi:role="line"
         id="tspan225"
         x="588.94714"
         y="-230.58781"
         style="baseline-shift:baseline;stroke-width:0.75"><tspan
           style="font-size:22px"
           id="tspan251">e</tspan><tspan
           id="tspan263"
           style="font-size:64.99999762%;baseline-shift:super" /></tspan></text>
<text
       xml:space="preserve"
       style="font-style:normal;font-weight:normal;font-size:30px;line-height:1.25;font-family:sans-serif;letter-spacing:0px;word-spacing:0px;fill:#000000;fill-opacity:1;stroke:none;stroke-width:0.75"
       x="565.48914"
       y="-337.896"
       id="text233"
       transform="scale(1,-1)"
       inkscape:export-filename="C:\Users\Conrad\QUADaps\Bachelorarbeit\illustrations\fluorescence.png"
       inkscape:export-xdpi="90"
       inkscape:export-ydpi="90"><tspan
         sodipodi:role="line"
         id="tspan231"
         x="565.48914"
         y="-310.52609"
         style="stroke-width:0.75" /></text>
<text
       xml:space="preserve"
       style="font-style:normal;font-weight:normal;font-size:30px;line-height:1.25;font-family:sans-serif;letter-spacing:0px;word-spacing:0px;fill:#000000;fill-opacity:1;stroke:none;stroke-width:0.75"
       x="552.51233"
       y="-335.89957"
       id="text237"
       transform="scale(1,-1)"
       inkscape:export-filename="C:\Users\Conrad\QUADaps\Bachelorarbeit\illustrations\fluorescence.png"
       inkscape:export-xdpi="90"
       inkscape:export-ydpi="90"><tspan
         sodipodi:role="line"
         id="tspan235"
         x="552.51233"
         y="-335.89957"
         style="font-style:normal;font-variant:normal;font-weight:normal;font-stretch:normal;font-size:22px;font-family:'Palatino Linotype';-inkscape-font-specification:'Palatino Linotype';stroke-width:0.75">K<tspan
   style="font-size:64.99999762%;baseline-shift:sub"
   id="tspan247">α</tspan></tspan></text>
<text
       xml:space="preserve"
       style="font-style:normal;font-weight:normal;font-size:30px;line-height:1.25;font-family:sans-serif;letter-spacing:0px;word-spacing:0px;fill:#000000;fill-opacity:1;stroke:none;stroke-width:0.75"
       x="471.65689"
       y="-375.82819"
       id="text241"
       transform="scale(1,-1)"
       inkscape:export-filename="C:\Users\Conrad\QUADaps\Bachelorarbeit\illustrations\fluorescence.png"
       inkscape:export-xdpi="90"
       inkscape:export-ydpi="90"><tspan
         sodipodi:role="line"
         id="tspan239"
         x="471.65689"
         y="-375.82819"
         style="font-style:normal;font-variant:normal;font-weight:normal;font-stretch:normal;font-size:22px;font-family:'Palatino Linotype';-inkscape-font-specification:'Palatino Linotype';stroke-width:0.75">K<tspan
   style="font-size:64.99999762%;baseline-shift:sub"
   id="tspan249">β</tspan></tspan></text>
<text
       xml:space="preserve"
       style="font-style:normal;font-weight:normal;font-size:30px;line-height:1.25;font-family:sans-serif;letter-spacing:0px;word-spacing:0px;fill:#000000;fill-opacity:1;stroke:none;stroke-width:0.75"
       x="523.06494"
       y="-259.03696"
       id="text245"
       transform="scale(1,-1)"
       inkscape:export-filename="C:\Users\Conrad\QUADaps\Bachelorarbeit\illustrations\fluorescence.png"
       inkscape:export-xdpi="90"
       inkscape:export-ydpi="90"><tspan
         sodipodi:role="line"
         id="tspan243"
         x="523.06494"
         y="-231.66705"
         style="stroke-width:0.75" /></text>
</g></svg>